<svg xmlns="http://www.w3.org/2000/svg" width="52" height="23">
  <path d="M52.00000026 4.16599988l-2.80952202-2.829-11.03144713 11.102-4.92163086-4.953-2.81051549 2.829 7.73214635 7.783z"/>
  <path d="M46.86278726 19.99999988c0 .542-.45500746 1-.99346606 1H28.98039818c-.5384586 0-.99346606-.458-.99346606-1v-17c0-.542.45500746-1 .99346606-1h16.79752414l1.5746437-1.585c-.439112-.257-.94180582-.415-1.48324482-.415H28.98039818c-1.639219 0-2.98039818 1.35-2.98039818 3v17c0 1.65 1.34117918 3 2.98039818 3H45.8693212c1.639219 0 2.98039818-1.35 2.98039818-3v-9.829l-1.98693212 2v7.829zM20 1.9999999c.542 0 1 .458 1 1V20c0 .542-.458 1-1 1H3c-.542 0-1-.458-1-1V2.9999999c0-.542.458-1 1-1h17M20-1.2e-7H3c-1.65 0-3 1.35000002-3 3.00000002V20c0 1.65 1.35 3 3 3h17c1.65 0 3-1.35 3-3V2.9999999c0-1.65-1.35-3.00000002-3-3.00000002z"/>
</svg>
