<svg xmlns="http://www.w3.org/2000/svg" width="39" height="12">
  <path d="M0 12h12.937c-.163-2.643-2.074-4.837-4.671-5.543 1.008-.611 1.687-1.707 1.687-2.972C9.953 1.561 8.393 0 6.468 0 4.543 0 2.983 1.561 2.983 3.485c0 1.264.68 2.361 1.688 2.972C2.074 7.163.162 9.357 0 12z" fill="#ffc600"/>
  <g fill="#ffc600">
    <path d="M23.346983 4h1.984v8h-1.984zM15.346983 5h1.984v7h-1.984zM19.346983 2h2v10h-2z"/>
  </g>
  <g fill="#ffc600">
    <path d="M38.88895 3.035c-.082-.098-.203-.154-.327-.154h-2.312v1.227c0 .563-.484 1.022-1.08 1.022-.594 0-1.078-.458-1.078-1.022V2.881h-2.158v1.227c0 .563-.485 1.022-1.08 1.022-.595 0-1.078-.458-1.078-1.022V2.881h-2.313c-.125 0-.243.056-.327.154-.083.098-.123.228-.108.358l.776 7.134c.015.806.642 1.455 1.411 1.455h7.595c.77 0 1.396-.649 1.411-1.455l.776-7.134c.015-.13-.026-.26-.108-.358z"/>
    <path d="M30.85395 4.517c.239 0 .433-.184.433-.409v-2.25c0-.632.672-1.022 1.295-1.022h1.079c.655 0 1.078.401 1.078 1.022v2.25c0 .225.194.409.431.409.239 0 .433-.184.433-.409v-2.25c-.001-1.067-.817-1.84-1.942-1.84h-1.079c-1.19 0-2.159.826-2.159 1.84v2.25c0 .225.194.409.431.409z"/>
  </g>
</svg>
