<svg xmlns="http://www.w3.org/2000/svg" width="960" height="160">
  <g transform="translate(364.489 36.4995)" fill="#363636">
    <path d="M53.349 1.49c0-.736-.578-1.49-1.311-1.49H9.053C8.32 0 7.672.754 7.672 1.49v3.522h45.676V1.49zm.853 80.319h-9.597V71.426h-6.958v2.507H18.774c-.537-1.254-1.757-2.148-3.181-2.148H3.559C1.642 71.784 0 73.387 0 75.311v3.018c0 1.924 1.642 3.48 3.559 3.48h12.035c1.511 0 2.792-.896 3.269-2.326h18.785v2.326H28.13c-.533 0-1.01.437-1.01.972v3.172c0 .535.478 1.048 1.01 1.048h26.072c.533 0 .93-.513.93-1.048V82.78c0-.535-.397-.971-.93-.971zm6.464-69.419c-.861-2.937-3.567-5.05-6.771-5.05H7.148C3.25 7.34 0 10.449 0 14.361v46.9c0 3.912 3.25 7.121 7.148 7.121h46.747c3.898 0 7.126-3.209 7.126-7.121V50.915c6.066-4.204 10.001-11.211 10.001-19.164-.001-8.079-4.132-15.181-10.356-19.361zM12.238 62.151c-3.259 0-5.901-2.65-5.901-5.921 0-3.27 2.642-5.922 5.901-5.922s5.902 2.652 5.902 5.922c0 3.271-2.643 5.921-5.902 5.921zm5.961-32.605c0 .786-.635 1.422-1.418 1.422h-8.94c-.783 0-1.418-.637-1.418-1.422v-14.16c0-.786.635-1.423 1.418-1.423h8.939c.783 0 1.418.637 1.418 1.423v14.16zm29.563 22.312c-11.076 0-20.057-9.01-20.057-20.123 0-11.113 8.98-20.124 20.057-20.124 11.077 0 20.058 9.01 20.058 20.124 0 11.114-8.981 20.123-20.058 20.123z"/>
    <ellipse cx="47.762001" cy="31.735001" rx="12.188" ry="12.229"/>
    <circle cx="31.562" cy="31.736" r="1.4349999"/>
    <circle cx="63.963001" cy="31.736" r="1.4349999"/>
    <circle cx="39.109001" cy="17.993999" r="1.4349999"/>
    <ellipse cx="56.415001" cy="45.476002" rx="1.4299999" ry="1.436"/>
    <circle cx="55.696999" cy="17.565001" r="1.4349999"/>
    <circle cx="39.827999" cy="45.905998" r="1.4349999"/>
  </g>
  <g fill="#363636">
    <path d="M115.654707 85.143984v-12.636c0-1.309 1.045-2.37 2.335-2.37l8.326 1.581v-8.194c0-2.355-1.708-3.431-4.202-4.265l-23.187-6.58c1.616 1.391 1.889 2.04 1.889 4.396v45.209c0 2.356-.45 4.066-1.967 5.21l23.265-7.065c2.401-.833 4.202-4.216 4.202-6.572v-7.913l-8.326 1.567c-1.29.002-2.335-1.06-2.335-2.368z"/>
    <path d="M126.652707 73.483984l-7.598-1.444c-1.008 0-1.824.829-1.824 1.851v9.868c0 1.023.816 1.852 1.824 1.852l7.598-1.431c1.154-.419 1.824-.829 1.824-1.852v-6.993c0-1.022-.766-1.507-1.824-1.851zm-27.959-16.496c0-5.08-4.232-4.459-4.232-4.459s-57.106 4.714-60.1 5.121c-2.994.407-2.837 4.387-2.837 4.387s-.001 32.537-.001 36.28c0 3.743 2.599 3.753 2.599 3.753l16.477 1.403 8.136-11.668s1.109-1.828 2.505-1.828c1.397 0 2.432 1.861 2.432 1.861l9.061 13.521s18.895 1.909 22.521 1.909c3.626-.001 3.439-5.024 3.439-5.024v-45.256zm-54.188 32.709c-3.698 0-6.696-4.601-6.696-10.275s2.998-10.275 6.696-10.275c3.698 0 6.696 4.601 6.696 10.275s-2.998 10.275-6.696 10.275zm36.158 1.426c-4.662 0-8.441-5.239-8.441-11.701 0-6.463 3.78-11.702 8.441-11.702 4.662 0 8.442 5.239 8.442 11.702 0 6.462-3.78 11.701-8.442 11.701z"/>
  </g>
  <path d="M279.7445 47.011h-79.491c-1.761 0-3.188 1.427-3.188 3.188v46.413c0 1.763 1.427 3.189 3.188 3.189h79.492c1.762 0 3.189-1.427 3.189-3.189V50.199c0-1.761-1.428-3.188-3.19-3.188zm-74.429 33.225h-.226c-1.762 0-3.189-1.429-3.189-3.189v-7.283c0-1.761 1.427-3.188 3.189-3.188h.226v13.66zm61.231 15.172h-56.282V51.402h56.282v44.006zm8.777-17.856c-2.289 0-4.146-1.855-4.146-4.147 0-2.292 1.856-4.147 4.146-4.147 2.291 0 4.148 1.855 4.148 4.147 0 2.292-1.857 4.147-4.148 4.147zM228.4205 43h23.157v2.7579999h-23.157zm15.111 64.861v-2.973h8.046v-2.758h-23.156v2.758h8.045v35.246c-2.139.938-3.635 3.072-3.635 5.559V160h14.335v-14.307c0-2.486-1.495-4.621-3.636-5.557v-27.99h4.796l5.051 1.213v-6.711l-5.051 1.213h-4.795z" fill="#363636"/>
  <g fill="#363636">
    <path d="M605.31 51.719c.752 1.441 1.209 3.08 1.209 4.818v21.102c0 4.616-3.092 8.527-7.246 9.9-1.325 3.987-3.778 7.854-8.051 10.432-8.676 5.231-31.124 4.837-31.198 4.837-.078 0-22.513.395-31.189-4.837-4.216-2.545-6.708-6.347-8.042-10.279-4.418-1.209-7.756-5.251-7.756-10.053V56.538c0-1.688.427-3.282 1.139-4.693-3.663.909-7.833 2.718-7.833 6.234v29.983c0 10.251 11.839 24.433 53.657 24.433 41.82 0 53.657-14.182 53.657-24.433V58.079c-.001-3.684-4.576-5.494-8.347-6.36z"/>
    <path d="M526.904 86.104h65.523c5.564 0 10.074-4.513 10.074-10.077V57.58c0-5.563-4.51-10.075-10.074-10.075h-65.523c-5.564 0-10.075 4.511-10.075 10.075v18.447c0 5.564 4.511 10.077 10.075 10.077zm63.134-28.991c.867 0 1.569.703 1.569 1.57 0 .866-.702 1.569-1.569 1.569s-1.568-.703-1.568-1.569c0-.868.701-1.57 1.568-1.57zm0 4.039c.867 0 1.569.703 1.569 1.568 0 .867-.702 1.569-1.569 1.569s-1.568-.702-1.568-1.569c0-.865.701-1.568 1.568-1.568zm0 4.039c.867 0 1.569.702 1.569 1.569 0 .866-.702 1.569-1.569 1.569s-1.568-.703-1.568-1.569c0-.867.701-1.569 1.568-1.569zm0 3.827c.867 0 1.569.704 1.569 1.569 0 .867-.702 1.568-1.569 1.568s-1.568-.701-1.568-1.568c0-.866.701-1.569 1.568-1.569zm0 4.039c.867 0 1.569.702 1.569 1.569 0 .865-.702 1.568-1.569 1.568s-1.568-.704-1.568-1.568c0-.867.701-1.569 1.568-1.569zm-4.039-15.944c.867 0 1.568.703 1.568 1.57 0 .866-.701 1.569-1.568 1.569-.865 0-1.568-.703-1.568-1.569 0-.868.703-1.57 1.568-1.57zm0 15.944c.867 0 1.568.702 1.568 1.569 0 .865-.701 1.568-1.568 1.568-.865 0-1.568-.704-1.568-1.568 0-.867.703-1.569 1.568-1.569zm-4.037-15.944c.865 0 1.568.703 1.568 1.57 0 .866-.703 1.569-1.568 1.569-.867 0-1.569-.703-1.569-1.569 0-.868.702-1.57 1.569-1.57zm0 4.039c.865 0 1.568.703 1.568 1.568 0 .867-.703 1.569-1.568 1.569-.867 0-1.569-.702-1.569-1.569 0-.865.702-1.568 1.569-1.568zm0 4.039c.865 0 1.568.702 1.568 1.569 0 .866-.703 1.569-1.568 1.569-.867 0-1.569-.703-1.569-1.569 0-.867.702-1.569 1.569-1.569zm0 3.827c.865 0 1.568.704 1.568 1.569 0 .867-.703 1.568-1.568 1.568-.867 0-1.569-.701-1.569-1.568 0-.866.702-1.569 1.569-1.569zm0 4.039c.865 0 1.568.702 1.568 1.569 0 .865-.703 1.568-1.568 1.568-.867 0-1.569-.704-1.569-1.568 0-.867.702-1.569 1.569-1.569zm-7.654-15.944c.867 0 1.568.703 1.568 1.57 0 .866-.701 1.569-1.568 1.569-.867 0-1.568-.703-1.568-1.569-.001-.868.703-1.57 1.568-1.57zm0 8.078c.867 0 1.568.702 1.568 1.569 0 .866-.701 1.569-1.568 1.569-.867 0-1.568-.703-1.568-1.569-.001-.867.703-1.569 1.568-1.569zm0 3.881c.867 0 1.568.701 1.568 1.568 0 .865-.701 1.569-1.568 1.569-.867 0-1.568-.704-1.568-1.569-.001-.867.703-1.568 1.568-1.568zm0 3.985c.867 0 1.568.702 1.568 1.569 0 .865-.701 1.568-1.568 1.568-.867 0-1.568-.704-1.568-1.568-.001-.867.703-1.569 1.568-1.569zm-4.039-15.944c.867 0 1.57.703 1.57 1.57 0 .866-.703 1.569-1.57 1.569-.865 0-1.569-.703-1.569-1.569-.001-.868.704-1.57 1.569-1.57zm0 8.078c.867 0 1.57.702 1.57 1.569 0 .866-.703 1.569-1.57 1.569-.865 0-1.569-.703-1.569-1.569-.001-.867.704-1.569 1.569-1.569zm0 7.866c.867 0 1.57.702 1.57 1.569 0 .865-.703 1.568-1.57 1.568-.865 0-1.569-.704-1.569-1.568-.001-.867.704-1.569 1.569-1.569zm-4.038-15.944c.865 0 1.569.703 1.569 1.57 0 .866-.704 1.569-1.569 1.569-.867 0-1.568-.703-1.568-1.569-.001-.868.701-1.57 1.568-1.57zm0 4.039c.865 0 1.569.703 1.569 1.568 0 .867-.704 1.569-1.569 1.569-.867 0-1.568-.702-1.568-1.569-.001-.865.701-1.568 1.568-1.568zm0 4.039c.865 0 1.569.702 1.569 1.569 0 .866-.704 1.569-1.569 1.569-.867 0-1.568-.703-1.568-1.569-.001-.867.701-1.569 1.568-1.569zm0 7.866c.865 0 1.569.702 1.569 1.569 0 .865-.704 1.568-1.569 1.568-.867 0-1.568-.704-1.568-1.568-.001-.867.701-1.569 1.568-1.569zm-8.29-15.944c.867 0 1.569.703 1.569 1.57 0 .866-.702 1.569-1.569 1.569s-1.568-.703-1.568-1.569c-.001-.868.701-1.57 1.568-1.57zm0 4.039c.867 0 1.569.703 1.569 1.568 0 .867-.702 1.569-1.569 1.569s-1.568-.702-1.568-1.569c-.001-.865.701-1.568 1.568-1.568zm0 4.039c.867 0 1.569.702 1.569 1.569 0 .866-.702 1.569-1.569 1.569s-1.568-.703-1.568-1.569c-.001-.867.701-1.569 1.568-1.569zm0 3.881c.867 0 1.569.701 1.569 1.568 0 .865-.702 1.569-1.569 1.569s-1.568-.704-1.568-1.569c-.001-.867.701-1.568 1.568-1.568zm0 3.985c.867 0 1.569.702 1.569 1.569 0 .865-.702 1.568-1.569 1.568s-1.568-.704-1.568-1.568c-.001-.867.701-1.569 1.568-1.569zm-4.039-11.905c.867 0 1.568.703 1.568 1.568 0 .867-.701 1.569-1.568 1.569-.867 0-1.569-.702-1.569-1.569 0-.865.701-1.568 1.569-1.568zm-8.502-.212c.865 0 1.569.703 1.569 1.568 0 .867-.704 1.569-1.569 1.569-.867 0-1.571-.703-1.571-1.569 0-.865.703-1.568 1.571-1.568zm0 4.038c.865 0 1.569.703 1.569 1.57 0 .866-.704 1.57-1.569 1.57-.867 0-1.571-.704-1.571-1.57 0-.867.703-1.57 1.571-1.57zm-4.039-8.078c.865 0 1.568.703 1.568 1.57 0 .866-.704 1.568-1.568 1.568-.867 0-1.569-.703-1.569-1.568 0-.867.701-1.57 1.569-1.57zm0 4.04c.865 0 1.568.703 1.568 1.568 0 .867-.704 1.569-1.568 1.569-.867 0-1.569-.703-1.569-1.569 0-.865.701-1.568 1.569-1.568zm0 4.038c.865 0 1.568.703 1.568 1.57 0 .866-.704 1.57-1.568 1.57-.867 0-1.569-.704-1.569-1.57 0-.867.701-1.57 1.569-1.57zm0 4.04c.865 0 1.568.704 1.568 1.569 0 .867-.704 1.568-1.568 1.568-.867 0-1.569-.701-1.569-1.568 0-.866.701-1.569 1.569-1.569zm-4.254-8.078c.867 0 1.569.703 1.569 1.568 0 .867-.702 1.569-1.569 1.569s-1.568-.703-1.568-1.569c0-.865.701-1.568 1.568-1.568zm0 4.038c.867 0 1.569.703 1.569 1.57 0 .866-.702 1.57-1.569 1.57s-1.568-.704-1.568-1.57c0-.867.701-1.57 1.568-1.57zm0 4.04c.867 0 1.569.704 1.569 1.569 0 .867-.702 1.568-1.569 1.568s-1.568-.701-1.568-1.568c0-.866.701-1.569 1.568-1.569zm0 4.039c.867 0 1.569.702 1.569 1.569 0 .865-.702 1.568-1.569 1.568s-1.568-.704-1.568-1.568c0-.867.701-1.569 1.568-1.569zM532.643 56.9c.867 0 1.571.703 1.571 1.57 0 .866-.704 1.568-1.571 1.568-.865 0-1.569-.703-1.569-1.568 0-.867.704-1.57 1.569-1.57zm0 4.04c.867 0 1.571.703 1.571 1.568 0 .867-.704 1.569-1.571 1.569-.865 0-1.569-.703-1.569-1.569 0-.865.704-1.568 1.569-1.568zm0 4.038c.867 0 1.571.703 1.571 1.57 0 .866-.704 1.57-1.571 1.57-.865 0-1.569-.704-1.569-1.57 0-.867.704-1.57 1.569-1.57zm0 4.04c.867 0 1.571.704 1.571 1.569 0 .867-.704 1.568-1.571 1.568-.865 0-1.569-.701-1.569-1.568 0-.866.704-1.569 1.569-1.569zm-4.037-8.078c.865 0 1.569.703 1.569 1.568 0 .867-.704 1.569-1.569 1.569-.867 0-1.569-.703-1.569-1.569 0-.865.702-1.568 1.569-1.568zm0 4.038c.865 0 1.569.703 1.569 1.57 0 .866-.704 1.57-1.569 1.57-.867 0-1.569-.704-1.569-1.57 0-.867.702-1.57 1.569-1.57z"/>
  </g>
  <path d="M746.4895 63.206h-1.515v-4.64c0-5.052-4.087-9.186-9.082-9.186h-34.815c-4.996.001-9.082 4.134-9.082 9.186v42.868c0 5.052 4.087 9.185 9.083 9.185h34.815c4.995 0 9.082-4.133 9.082-9.185v-3.415h1.515c.415 0 .757-.344.757-.764V83.476c0-.421-.342-.766-.757-.766h-1.515v-8.788h1.515c.832 0 1.514-.688 1.514-1.531v-7.654c-.001-.842-.683-1.531-1.515-1.531zm-20.412-3.109c2.926 0 5.299 2.398 5.299 5.358 0 2.96-2.373 5.358-5.299 5.358s-5.298-2.398-5.298-5.358c0-2.96 2.372-5.358 5.298-5.358zm-15.137 0c2.925 0 5.298 2.398 5.298 5.358 0 2.96-2.373 5.358-5.298 5.358-2.926 0-5.298-2.398-5.298-5.358 0-2.96 2.372-5.358 5.298-5.358zm-13.648 20.309c0-2.959 2.371-5.358 5.298-5.358 2.926 0 5.298 2.399 5.298 5.358 0 2.959-2.373 5.358-5.298 5.358-2.927.001-5.298-2.399-5.298-5.358zm13.648 19.497c-2.926 0-5.298-2.398-5.298-5.358 0-2.96 2.372-5.358 5.298-5.358 2.925 0 5.298 2.398 5.298 5.358 0 2.96-2.373 5.358-5.298 5.358zm1.49-19.903c0-3.382 2.711-6.124 6.055-6.124s6.055 2.742 6.055 6.124c0 3.382-2.711 6.124-6.055 6.124-3.344-.001-6.055-2.742-6.055-6.124zm13.647 19.903c-2.926 0-5.298-2.398-5.298-5.358 0-2.96 2.372-5.358 5.298-5.358s5.299 2.398 5.299 5.358c0 2.96-2.373 5.358-5.299 5.358zm8.302-14.138c-2.927 0-5.298-2.399-5.298-5.358 0-2.959 2.371-5.358 5.298-5.358 2.926 0 5.298 2.399 5.298 5.358 0 2.958-2.372 5.358-5.298 5.358zm-32.738-39.446h33.687c.843 0 1.432-.681 1.306-1.514l-1.616-10.768s0-.001-.002-.002c-.25-1.664-1.832-3.026-3.515-3.026h-26.032c-1.686 0-3.268 1.362-3.517 3.028l-1.615 10.767c-.125.833.461 1.515 1.304 1.515zm33.687 67.361h-33.687c-.843 0-1.429.683-1.304 1.516l1.615 10.767c.25 1.666 1.832 3.028 3.516 3.028h26.032c1.684 0 3.266-1.362 3.517-3.026v-.002l1.615-10.767c.128-.833-.461-1.516-1.304-1.516z" fill="#363636"/>
  <g fill="#363636">
    <path d="M826.03954 45.75405c-5.5449.4873-10.2139 1.5928-11.477 2.6724-.7227.6162-.7227.6162-.2324 1.1562.6445.7197 3.7134 1.645 7.2476 2.2363 3.998.668 12.5098.6934 13.7231.0513 1.2119-.668 1.624-1.4136 1.624-2.9814 0-1.6187-.6191-2.416-2.2178-2.8525-1.4458-.3859-5.7783-.5402-8.6675-.2823zm13.7222.2304c-.1294.2832-.2583 2.1079-.2583 4.1118 0 4.061.1553 3.7783-2.1919 3.9331l-1.0308.0771-.1294 2.5444-.1289 2.5439-1.1865.2832c-2.5791.668-3.999 2.5952-3.7915 5.2944.1279 1.9272 1.0308 3.3408 2.5786 4.0869 1.1089.5132 1.4697.5381 11.2461.5381 5.5449 0 10.1372.0786 10.1885.1807.0508.1284-1.1094 9.4072-2.5796 20.6387-1.4448 11.2305-2.6831 20.9971-2.7085 21.666-.0513 1.6172.8262 2.6211 2.3477 2.6211 1.2373 0 2.0117-.6416 2.3213-1.9014.1294-.5137 1.4956-10.333 3.0181-21.8213 1.522-11.4629 2.8628-20.8687 2.9404-20.8687.103 0 1.083 1.4131 2.1924 3.1357 2.9399 4.626 2.3989 4.3169 7.6353 4.3169h4.3584v5.6298l-5.1328.0771c-4.7202.0771-5.21.127-5.8813.6152-1.5728 1.1572-1.625 1.415-1.625 10.9766 0 9.5342.0264 9.792 1.5225 11.0498l.8511.6953h31.3652l.8506-.6953c1.4961-1.2578 1.5205-1.5156 1.5205-11.0498 0-9.5615-.0508-9.8193-1.623-10.9766-.6709-.4883-1.1611-.5381-5.8818-.6152l-5.1318-.0771v-5.6298h4.3594c5.2344 0 4.6934.3091 7.6338-4.3169 1.1104-1.7227 2.0898-3.1357 2.1934-3.1357.0762 0 1.4189 9.4058 2.9395 20.8687 1.5225 11.4883 2.8896 21.3076 3.0186 21.8213.3096 1.2598 1.082 1.9014 2.3213 1.9014 1.5215 0 2.3994-1.0039 2.3467-2.6211-.0254-.6689-1.2637-10.4355-2.709-21.666-1.4688-11.2314-2.6309-20.5103-2.5781-20.6387.0508-.1021 4.6416-.1807 10.1895-.1807 9.7754 0 10.1357-.0249 11.2441-.5381 1.5479-.7461 2.4502-2.1597 2.5791-4.0869.207-2.6992-1.2109-4.6265-3.791-5.2944l-1.1875-.2832-.127-2.5439-.1289-2.5444-1.0322-.0771c-2.3467-.1548-2.1934.1279-2.1934-3.9331 0-2.0039-.1279-3.8286-.2568-4.1118-.2061-.3599-.543-.4883-1.3672-.4883-.6191 0-1.2383.1284-1.4199.3086-.2061.2056-.3096 1.4653-.3096 3.9321 0 2.4673-.1025 3.7271-.3096 3.9321-.1797.1797-.9014.3081-1.6494.3081-1.626 0-1.6514.0522-1.6514 3.1104v2.2871h-67.0639v-2.2871c0-3.0581-.0249-3.1104-1.6499-3.1104-.7485 0-1.4702-.1284-1.6504-.3081-.2075-.2051-.3101-1.4648-.3101-3.9321 0-2.4668-.103-3.7266-.3096-3.9321-.1807-.1802-.8003-.3086-1.4189-.3086-.8247 0-1.1602.1285-1.3672.4883zm42.8428 40.1201c2.8887.8984 5.3916 3.3926 6.166 6.168.4385 1.543.3096 4.2158-.2842 5.7832-.6963 1.875-2.6846 4.0098-4.5654 4.9355-1.29.6416-1.7539.7188-3.9209.7188-2.1665 0-2.6309-.0771-3.9204-.7188-1.8843-.9258-3.8691-3.0605-4.5659-4.9355-.5928-1.5674-.7227-4.2402-.2837-5.7832.748-2.7236 3.2495-5.2695 6.0615-6.168 2.0122-.6425 3.3003-.6425 5.313 0z"/>
    <path d="M877.78124 89.93365c-2.0366.9258-3.5068 3.6494-3.0688 5.7305.7739 3.6768 4.8232 5.5527 7.9956 3.7021 1.9854-1.1582 2.9912-3.5469 2.4512-5.7832-.5684-2.3906-2.7344-4.1377-5.1592-4.1377-.6455 0-1.6255.2315-2.2188.4883zm-27.7021-44.2832c-3.9204.668-4.5132 1.1309-4.5132 3.4438 0 1.8247.4639 2.416 2.2681 2.9556 1.5498.4624 7.1724.5142 10.5.1284 6.8608-.8223 11.3218-2.5444 9.6987-3.752-1.2651-.8999-4.9023-1.8765-9.0542-2.3901-2.4756-.308-7.9961-.54-8.8994-.3857zm53.3926.1036c-6.3193.5903-11.8643 2.0811-11.8643 3.186 0 1.7222 7.8408 3.4697 15.6299 3.4956 5.8037 0 7.1963-.6421 7.1963-3.3413 0-1.8242-.6191-2.6216-2.373-3.084-1.6495-.4116-5.6749-.5142-8.5889-.2563zm23.292.0254c-1.7803.231-3.0186.7705-3.4307 1.4907-.3867.7705-.3096 2.9038.1543 3.5718.9277 1.311 1.6523 1.4653 7.0684 1.4653 3.6611 0 5.8018-.1289 7.8662-.4883 3.5342-.5913 6.6035-1.5166 7.248-2.2363.4902-.54.4902-.54-.2324-1.1562-1.3408-1.1309-5.958-2.1851-11.916-2.6724-3.4815-.2832-4.4883-.2832-6.7578.0254z"/>
  </g>
</svg>
