<svg xmlns="http://www.w3.org/2000/svg" width="513" height="194" viewBox="0 0 512.99999 194">
  <g transform="translate(348.9638228 4.11004372)" fill="#fff">
    <circle cx="141.25" cy="68.876999" r="14.75"/>
    <path d="M89.113 139.544l-7.074 17.875-22.824 14.917c-2.168 1.232-3.634 3.559-3.634 6.23 0 3.958 3.208 7.167 7.167 7.167 1.535 0 2.955-.487 4.121-1.31 3.761-2.371 22.351-14.084 25.495-15.88 3.5-2 4.125-5.125 4.125-5.125l4.875-16-5.75-2.625c-5.75-2.625-6.501-5.249-6.501-5.249z"/>
    <path d="M139.321 141.462s-1.158-3.834-4.579-5.167c-3.421-1.333-18.087-7.75-18.087-7.75l15.416-25.584s3.834-9-.333-13.417-13.75-9.75-13.75-9.75h-7.521l15.799-26.801c3.354-5.686 1.443-13.081-4.242-16.432L72.633 7.447c-5.686-3.352-13.079-1.442-16.431 4.244L9.144 91.519c-3.351 5.685-1.442 13.08 4.244 16.432l49.39 29.113c5.686 3.352 13.081 1.441 16.432-4.242l22.934-38.903h8.096l-14.75 26.209s-5.134 9.214-.334 14.25c4.209 4.416 12.667 6.916 12.667 6.916l17.25 6.501 5.101 31.291.009-.001c.549 3.413 3.499 6.023 7.067 6.023 3.958 0 7.166-3.209 7.166-7.167 0-.189-.014-.375-.028-.56l.028-.004-5.095-35.915zM17.958 100.198c-1.401-.826-1.887-2.708-1.061-4.108l47.059-79.829c.826-1.401 2.707-1.888 4.107-1.062l11.521 6.792-50.104 84.998-11.522-6.791zm53.498 28.054c-.826 1.4-2.707 1.887-4.107 1.061l-30.116-17.754L87.34 26.563l30.113 17.753c1.402.826 1.887 2.707 1.062 4.107l-18.493 31.372h-8.783L71.323 94.222c-.442.252-.853.553-1.23.891l-.031.022.002.003c-1.445 1.312-2.358 3.198-2.358 5.304 0 3.958 3.208 7.167 7.167 7.167 1.548 0 2.978-.496 4.149-1.331l.002.003.071-.058c.182-.133.356-.273.524-.423l9.66-7.784-17.823 30.236z"/>
  </g>
  <path d="M398.182823 10.05304402l-47.0580002 79.829c-3.351 5.685-1.442 13.079996 4.2440002 16.431996l49.39 29.113c5.686 3.352 13.081 1.441 16.432-4.242l47.056997-79.828996c3.354-5.686 1.443-13.081-4.242-16.432l-49.391997-29.1140003c-5.685-3.352-13.079-1.442-16.431 4.2430003zm-39.305 84.4l47.059-79.829c.826-1.401 2.707-1.888 4.107-1.062l11.521 6.792-50.105 84.997996-11.522-6.790996c-1.4-.826-1.886-2.708-1.06-4.108zm101.616997-47.667l-47.058997 79.828996c-.826 1.4-2.707 1.887-4.107 1.061l-30.116-17.754 50.106-84.995996 30.112997 17.753c1.403.825 1.887 2.706 1.063 4.107z" fill="#f0c42e"/>
  <g transform="translate(348.9638228 4.11004372)" fill="#3a3a3a">
    <circle cx="135.25" cy="63.083" r="14.75"/>
    <path d="M81.875 133.75l-7.074 17.875-22.825 14.917c-2.168 1.232-3.634 3.559-3.634 6.23 0 3.958 3.208 7.167 7.167 7.167 1.535 0 2.955-.487 4.121-1.31 3.761-2.371 22.351-14.084 25.495-15.88 3.5-2 4.125-5.125 4.125-5.125l4.875-16-5.75-2.625c-5.75-2.625-6.5-5.249-6.5-5.249zm50.208 1.918s-1.158-3.834-4.579-5.167c-3.421-1.333-18.087-7.75-18.087-7.75l15.416-25.584s3.834-9-.333-13.417S110.75 74 110.75 74H84L64.085 88.427c-.442.253-.853.553-1.23.891l-.031.022.002.003c-1.445 1.311-2.358 3.198-2.358 5.303 0 3.958 3.208 7.167 7.167 7.167 1.548 0 2.978-.496 4.149-1.331l.002.003.071-.058c.182-.133.357-.273.525-.423l14.743-11.881H103l-14.75 26.209s-5.134 9.214-.334 14.25c4.209 4.416 12.667 6.916 12.667 6.916l17.25 6.501 5.101 31.291.009-.001c.549 3.413 3.499 6.023 7.067 6.023 3.958 0 7.166-3.209 7.166-7.167 0-.189-.014-.375-.028-.56l.028-.004-5.093-35.913z"/>
  </g>
  <g fill="#fff">
    <path d="M249.04601 174.636c-.104-.13-10.495-12.996-12.609-15.76-1.321-1.727-3.307-2.678-5.593-2.678-2.56 0-4.836 1.17-5.512 1.553l-5.486 2.743c-1.773-.479-5.587-1.95-9.28-6.268-3.284-3.839-3.261-8.986-3.086-11.099l5.893-5.893c3.093-2.717 2.452-6.516 1.246-8.431l-.219-.311s-12.862-16.221-14.666-18.498c-.989-1.249-2.475-1.938-4.184-1.938-2.849 0-5.879 1.975-6.756 2.592-10.885 7.749-11.586 14.562-11.631 15.313l-.024.414.074.409c6.412 35.726 26.026 51.137 35.453 58.543 1.148.901 2.14 1.681 2.854 2.306 6.563 5.747 13.762 6.367 16.553 6.367 2.375-.001 4.48-.405 6.089-1.171 4.366-2.078 9.425-8.01 10.872-9.778 2.501-3.059 1.283-6.599.168-8.208l-.156-.207zm-13.893 11.873c-.499.237-1.57.491-3.081.491-1.56 0-7.032-.334-11.944-4.632-.854-.747-1.913-1.579-3.139-2.543-8.694-6.83-26.729-21.001-32.78-53.684.289-.979 1.829-4.938 8.62-9.771.652-.453 1.508-.904 2.119-1.142 2.831 3.572 11.41 14.392 13.502 17.03l-7.528 7.527-.203 1.055c-.081.422-1.911 10.409 4.527 17.937 6.286 7.349 13.25 8.667 14.583 8.856l1.082.154 7.644-3.823.218-.118c.281-.167 1.335-.648 2.071-.648.036 0 .065.001.088.003 2.149 2.8 11.105 13.897 12.5 15.624.001.004.002.007.004.01-2.562 3.095-6.173 6.669-8.283 7.674zm74.049-120.685c5.512-5.177 7.156-11.975 5.033-20.783-.207-.856-.848-1.541-1.689-1.802-.842-.262-1.76-.06-2.414.53l-8.221 7.403c-1.438-.795-3.676-2.451-4.465-5.33l6.803-6.729c.947-.938.992-2.453.104-3.446l-.186-.207c-.193-.216-.422-.396-.678-.533-.16-.086-3.988-2.116-8.824-2.116-4.709 0-8.859 1.921-12.002 5.556-6 6.938-4.557 15.042-3.543 18.471l-3.488 3.488-10.284-9.236 4.717-3.266-20.042-13.724-10.601 10.603 13.724 20.041 3.266-4.717 9.237 10.282-3.295 3.294c-1.5-.478-3.883-1.052-6.663-1.052-5.429 0-10.236 2.174-13.962 6.359-.271.329-6.599 8.165-2.751 18.621.284.773.931 1.356 1.729 1.56.796.203 1.645.001 2.264-.541l8.295-7.259c1.323.567 3.622 2.08 4.659 5.925l-7.384 7.516c-.634.645-.87 1.582-.617 2.45.253.868.954 1.532 1.835 1.737.11.025 2.724.623 6.175.623 6.84 0 12.112-2.271 15.245-6.567 3.363-4.613 4.094-9.433 3.994-13.088l16.217 16.217.172.158c1.521 1.26 4.318 2.725 7.451 2.725 2.227 0 4.625-.741 6.852-2.824l5.518-5.516.102-.104c5.012-5.358 2.258-11.698.1-14.302l-16.945-16.959c1.027.106 2.148.181 3.322.181 4.888-.001 8.669-1.225 11.24-3.639zm-53.299-13.846l-2.734 3.949-7.276-10.625 4.731-4.732 10.625 7.276-3.95 2.734 14.792 13.286-4.094 4.093 1.191-1.192-13.285-14.789zm13.562 33.524c.109.313 2.615 7.746-2.328 14.527-2.77 3.798-7.748 4.526-11.4 4.512l4.703-4.787c.566-.576.82-1.391.68-2.187-1.791-10.147-9.745-11.484-10.083-11.536-.729-.11-1.471.104-2.027.589l-6.204 5.428c-.522-5.56 2.413-9.489 2.759-9.932 2.721-3.03 6.127-4.566 10.125-4.566 3.515 0 6.231 1.211 6.249 1.22.953.439 2.076.241 2.818-.501l19-19c.725-.724.934-1.816.527-2.756-.035-.083-3.494-8.34 2.158-14.876 2.195-2.539 4.961-3.826 8.221-3.826 1.23 0 2.383.183 3.365.421l-5.047 4.993c-.551.544-.818 1.312-.725 2.08 1.012 8.3 8.969 11.077 9.307 11.191.855.288 1.801.094 2.473-.511l6.049-5.447c.373 4.864-1.02 8.554-4.309 11.642-2.008 1.887-5.359 2.283-7.818 2.283-3.689 0-6.951-.865-6.982-.873-.865-.236-1.795.014-2.43.653l-18.5 18.667c-.671.677-.893 1.69-.581 2.592zm5.502 1.842zm-.181-1.121c.01.052.02.104.029.158-.01-.052-.02-.107-.029-.158zm33.091 10.856l-5.479 5.476c-3.248 2.98-6.9.432-7.576-.087l-18.643-18.645 14.941-15.075-2.035 2.053 18.707 18.706c.46.592 3.097 4.287.085 7.572zm-15.209-28.054c.008.001.016.002.023.004-.007-.002-.015-.003-.023-.004zm-.843-.143c.02.004.045.008.066.012-.023-.004-.045-.008-.066-.012z"/>
    <path d="M275.51401 6.002c-36.408 0-65.922 29.514-65.922 65.922 0 33.517 25.02 61.172 57.398 65.354v26.224s57.439-21.243 71.969-73.622c.078-.283.139-.538.211-.812.113-.424.225-.85.33-1.277.064-.263.119-.514.178-.769 1.137-4.851 1.758-9.901 1.758-15.098 0-36.408-29.514-65.922-65.922-65.922zm57.348 79.422l-.006.027-.006.027-.029.13c-.039.17-.076.339-.119.515-.094.376-.191.751-.301 1.161l-.104.4c-.025.108-.053.216-.082.324-5.564 20.056-18.52 37.7-38.506 52.442-7.373 5.438-14.408 9.464-19.719 12.175v-21.502l-6.104-.788c-29.243-3.777-51.295-28.889-51.295-58.412 0-32.49 26.432-58.922 58.922-58.922 32.488 0 58.922 26.432 58.922 58.922.001 4.509-.528 9.051-1.573 13.501z"/>
  </g>
  <path d="M225.93501 187.998c-2.791 0-9.989-.62-16.554-6.364-.714-.625-1.706-1.404-2.854-2.306-9.426-7.406-29.041-22.817-35.453-58.543l-.074-.409.024-.414c.044-.752.746-7.564 11.631-15.313.877-.617 3.907-2.592 6.756-2.592 1.708 0 3.194.688 4.184 1.938 1.804 2.277 14.666 18.498 14.666 18.498l.219.311c1.206 1.915 1.847 5.714-1.246 8.431l-5.893 5.893c-.175 2.112-.198 7.26 3.086 11.099 3.692 4.317 7.507 5.789 9.28 6.268l5.486-2.743c.676-.383 2.952-1.553 5.512-1.553 2.286 0 4.272.951 5.593 2.678 2.114 2.764 12.504 15.63 12.609 15.76l.155.207c1.115 1.609 2.333 5.149-.168 8.208-1.447 1.769-6.505 7.7-10.872 9.778-1.607.763-3.712 1.167-6.087 1.168zm-47.863-67.858c6.051 32.683 24.086 46.854 32.78 53.684 1.226.964 2.285 1.796 3.139 2.543 4.912 4.298 10.384 4.632 11.944 4.632 1.511 0 2.582-.254 3.081-.491 2.11-1.005 5.722-4.579 8.284-7.674-.001-.003-.003-.006-.004-.01-1.394-1.727-10.351-12.824-12.5-15.624-.023-.002-.053-.003-.088-.003-.736 0-1.79.481-2.071.648l-.218.118-7.644 3.823-1.082-.154c-1.333-.189-8.297-1.508-14.583-8.856-6.438-7.527-4.608-17.515-4.527-17.937l.203-1.055 7.528-7.527c-2.092-2.639-10.671-13.458-13.502-17.03-.611.237-1.467.688-2.119 1.142-6.793 4.833-8.333 8.792-8.621 9.771z" fill="#3a3a3a"/>
  <path d="M249.79501 103.54c-3.452 0-6.065-.598-6.175-.623-.881-.205-1.583-.869-1.835-1.737-.252-.868-.017-1.806.617-2.45l7.384-7.516c-1.037-3.845-3.336-5.357-4.659-5.925l-8.295 7.259c-.62.542-1.468.744-2.264.541-.798-.203-1.444-.787-1.729-1.559-3.848-10.457 2.48-18.293 2.751-18.622 3.726-4.185 8.533-6.359 13.962-6.359 2.78 0 5.162.574 6.663 1.052l16.766-16.765c-1.013-3.43-2.457-11.534 3.543-18.471 3.143-3.634 7.293-5.556 12.002-5.556 4.837 0 8.664 2.029 8.825 2.116.255.137.484.317.677.533l.186.207c.89.993.845 2.508-.104 3.446l-6.803 6.729c.789 2.879 3.028 4.535 4.465 5.33l8.222-7.403c.654-.59 1.572-.792 2.413-.53.842.261 1.483.945 1.69 1.802 2.123 8.809.478 15.606-5.033 20.783-2.57 2.414-6.353 3.638-11.242 3.638-2.789 0-5.324-.407-6.839-.714l-16.504 16.653c.729 3.181 1.631 10.62-3.439 17.574-3.133 4.296-8.405 6.567-15.245 6.567zm-.196-5.001c3.651.015 8.631-.714 11.4-4.512 4.944-6.781 2.438-14.214 2.329-14.527-.313-.902-.091-1.915.582-2.593l18.5-18.667c.634-.639 1.564-.889 2.43-.653.03.008 3.293.873 6.982.873 2.458 0 5.811-.396 7.818-2.283 3.288-3.088 4.681-6.778 4.309-11.642l-6.049 5.447c-.672.604-1.617.799-2.473.511-.338-.114-8.295-2.891-9.307-11.191-.094-.768.173-1.536.724-2.08l5.047-4.993c-.981-.238-2.135-.421-3.365-.421-3.259 0-6.024 1.288-8.221 3.826-5.651 6.536-2.192 14.793-2.157 14.876.405.94.196 2.033-.528 2.756l-19 19c-.741.742-1.865.94-2.817.501-.018-.008-2.735-1.22-6.25-1.22-3.998 0-7.404 1.536-10.125 4.566-.347.442-3.282 4.372-2.759 9.932l6.204-5.428c.556-.486 1.298-.7 2.027-.589.337.052 8.291 1.389 10.082 11.536.141.796-.112 1.61-.679 2.187l-4.704 4.788z" fill="#f0c42e"/>
  <path d="M247.03001 49.925l-7.276-10.624 4.732-4.732 10.625 7.276-3.95 2.734 14.791 13.286 3.541-3.541-10.283-9.236 4.717-3.266-20.042-13.724-10.601 10.603 13.724 20.041 3.265-4.717 9.237 10.282 3.54-3.541-13.285-14.79zm41.469 13.355c-1.413-.146-2.64-.356-3.517-.534l-2.034 2.053 18.706 18.706c.46.592 3.097 4.287.084 7.572l-5.478 5.476c-3.248 2.98-6.901.432-7.576-.087l-18.642-18.645-1.563 1.578c.245 1.07.505 2.63.555 4.485l16.217 16.218.173.158c1.521 1.26 4.318 2.725 7.45 2.725 2.228 0 4.625-.741 6.853-2.824l5.518-5.516.102-.103c5.012-5.358 2.257-11.699.099-14.303l-16.947-16.959z" fill="#3a3a3a"/>
  <path d="M269.37501 7c32.489 0 58.922 26.432 58.922 58.922 0 4.508-.529 9.05-1.573 13.5l-.006.027-.007.027-.029.13c-.038.17-.076.339-.118.515-.094.376-.191.751-.302 1.161l-.103.4c-.026.108-.054.216-.083.324-5.564 20.056-18.52 37.7-38.506 52.442-7.373 5.438-14.408 9.464-19.719 12.175v-21.502l-6.104-.788c-29.243-3.777-51.294-28.889-51.294-58.412.001-32.489 26.433-58.921 58.922-58.921m0-7c-36.407 0-65.921 29.514-65.921 65.922 0 33.517 25.02 61.172 57.398 65.354V157.5s57.439-21.243 71.97-73.622c.078-.283.138-.538.21-.812.114-.424.225-.85.331-1.277.063-.263.119-.514.177-.769 1.138-4.851 1.758-9.901 1.758-15.098-.001-36.408-29.514-65.922-65.923-65.922z" fill="#3a3a3a"/>
  <g>
    <path d="M109.18139 54.09499997c8.121 0 14.945-5.542 16.9-13.049l5.467.814c.107.016.215.024.32.024 1.051 0 1.971-.77 2.131-1.84.176-1.178-.639-2.276-1.816-2.451l-5.541-.825c.002-.046.004-.091.004-.138 0-.182-.006-.362-.014-.542 0 0-.451-6.518-1.074-9.237-.621-2.719-2.535-3.296-2.535-3.296-9.77-2.212-19.772-2.438-22.375-2.438-2.603 0-3.158 1.332-3.158 1.332l-3.15 4.996-.01-.003c-.076.122-.146.245-.219.368l-.027.043c-1.502 2.58-2.367 5.576-2.367 8.777-.001 9.646 7.819 17.465 17.464 17.465zm38.402 39.309v-.002l-26.742-2.168-9.246-21.112s-.461-2.774-6.008-8.476c-5.549-5.702-16.799-3.39-16.799-3.39s-23.886 4.469-31.745 6.318c-7.86 1.85-8.168 9.863-8.168 9.863l-.632 4.519-15.178-2.941c-.191-.037-.381-.055-.568-.055-1.407 0-2.671 1-2.948 2.429l-7.411 38.242c-.314 1.62.754 3.202 2.375 3.516l51.196 9.923c.115.022.23.024.346.033h.002c-.728.104-1.291-.035-1.291-.035l-9.4-1.849-3.082 17.105-23.56 20.363c-1.701 1.361-2.792 3.453-2.792 5.801 0 4.104 3.326 7.43 7.429 7.43 2.035 0 3.878-.818 5.22-2.145 0 0 27.725-22.05 29.575-23.591 1.85-1.54 2.773-3.853 2.773-3.853s4.541-13.948 5.779-16.874c.848-2.004 4.932-1.079 4.932-1.079l22.885 8.631 7.615 29.062c.082.63.242 1.234.473 1.804h.002c1.098 2.728 3.77 4.654 6.889 4.654 4.104 0 7.43-3.327 7.43-7.43 0-.599-.072-1.179-.207-1.736-.842-4.965-4.604-27.046-5.561-31.826-1.078-5.394-4.621-6.934-4.621-6.934s-21.268-11.558-22.654-12.329c-1.387-.77-1.078-2.774-1.078-2.774l3.93-14.331 2.773 5.856s1.619 3.274 4.084 3.391l33.357.82c4.104 0 7.43-3.326 7.43-7.431-.001-3.889-2.993-7.079-6.804-7.399zm-71.431-15.269l-1.789 5.88 9.898 1.919-20.214-3.917.548-2.496 11.557-1.386zm-2.249 45.473l-45.304-8.781 6.27-32.353 12.542 2.431-1.618 11.567-.64 4.406c-.005.026-.008.056-.012.082l-.018.127h.002c-.04.312-.063.629-.063.951 0 4.104 3.327 7.429 7.43 7.429s7.429-3.325 7.429-7.429c0-.318-.021-.63-.061-.937l2.901-13.223 17.413 3.374-6.271 32.356zm-32.805-91.272h38.027c1.1 0 2-.896 2-1.99 0-1.094-.9-1.99-2-1.99h-38.027c-1.1 0-2 .896-2 1.99 0 1.094.9 1.99 2 1.99zm13.03 6.017c-1.1 0-2 .896-2 1.99 0 1.094.9 1.99 2 1.99h22.959c1.1 0 2-.896 2-1.99 0-1.095-.9-1.99-2-1.99h-22.959z" fill="#fff"/>
    <path d="M103.14639 48.05999997c8.121 0 14.945-5.542 16.9-13.049l5.467.814c.107.016.215.024.32.024 1.051 0 1.971-.77 2.131-1.84.176-1.178-.639-2.276-1.816-2.451l-5.541-.825c.002-.046.004-.091.004-.138 0-.182-.006-.362-.014-.542 0 0-.451-6.518-1.074-9.237-.621-2.719-2.535-3.296-2.535-3.296-9.77-2.212-19.772-2.438-22.376-2.438-2.604 0-3.158 1.332-3.158 1.332l-3.15 4.996-.01-.003c-.076.121-.146.245-.219.368l-.027.043c-1.502 2.58-2.367 5.576-2.367 8.777 0 9.646 7.82 17.465 17.465 17.465zm38.402 39.309v-.002l-26.742-2.168-9.246-21.112s-.461-2.774-6.008-8.476c-5.549-5.702-16.799-3.39-16.799-3.39s-23.886 4.469-31.745 6.317c-7.86 1.85-8.168 9.863-8.168 9.863l-3.082 22.036-.64 4.406c-.005.026-.008.056-.012.082l-.018.127h.002c-.04.312-.063.629-.063.951 0 4.104 3.327 7.429 7.43 7.429s7.429-3.325 7.429-7.429c0-.318-.021-.63-.061-.937l4.734-21.581 11.557-1.386-1.789 5.88 9.898 1.919c1.62.313 2.688 1.896 2.375 3.517l-7.412 38.243c-.277 1.43-1.541 2.43-2.948 2.43-.072 0-.146-.016-.22-.021-.728.104-1.291-.035-1.291-.035l-9.4-1.849-3.082 17.105-23.56 20.363c-1.701 1.361-2.792 3.453-2.792 5.801 0 4.104 3.326 7.43 7.429 7.43 2.035 0 3.878-.818 5.22-2.145 0 0 27.725-22.05 29.575-23.591 1.85-1.54 2.773-3.853 2.773-3.853s4.541-13.948 5.779-16.874c.848-2.004 4.932-1.079 4.932-1.079l22.885 8.631 7.615 29.062c.082.63.242 1.234.473 1.804h.002c1.098 2.728 3.77 4.654 6.889 4.654 4.104 0 7.43-3.327 7.43-7.43 0-.599-.072-1.179-.207-1.736-.842-4.965-4.604-27.046-5.561-31.826-1.078-5.394-4.621-6.934-4.621-6.934s-21.267-11.555-22.653-12.327c-1.387-.77-1.078-2.774-1.078-2.774l3.93-14.331 2.773 5.856s1.619 3.274 4.084 3.391l33.357.82c4.104 0 7.43-3.326 7.43-7.431 0-3.89-2.992-7.081-6.803-7.4z" fill="#3a3a3a"/>
    <path d="M70.01939 124.06699997h.002c.073.006.147.021.22.021 1.407 0 2.671-1 2.948-2.43l7.412-38.243c.313-1.621-.755-3.203-2.375-3.517l-20.214-3.917-1.286 5.862 17.413 3.374-6.271 32.354-45.304-8.779 6.27-32.353 12.542 2.431.832-5.95-15.178-2.942c-.191-.037-.381-.055-.568-.055-1.407 0-2.671 1-2.948 2.429l-7.411 38.244c-.314 1.62.754 3.202 2.375 3.516l51.196 9.923c.114.022.229.023.345.032z" fill="#f0c42e"/>
    <path d="M75.09039 24.30999997c0 1.095-.9 1.99-2 1.99h-38.027c-1.1 0-2-.896-2-1.99 0-1.094.9-1.99 2-1.99h38.027c1.1.001 2 .896 2 1.99zm-2.038 9.998c0 1.094-.9 1.99-2 1.99h-22.96c-1.1 0-2-.896-2-1.99 0-1.095.9-1.99 2-1.99h22.959c1.101 0 2.001.896 2.001 1.99z" fill="#f0c52e"/>
  </g>
</svg>
