<svg xmlns="http://www.w3.org/2000/svg" width="96" height="32">
  <path d="M16-2e-7C7.164-2e-7 0 7.1629998 0 16c0 8.837 7.164 16 16 16 8.837 0 16-7.164 16-16C32 7.1639998 24.837-2e-7 16-2e-7zM20.062 9.455h-3.021v3.444h3.021v3.445h-3.021v8.61H14.02v-8.61H11v-3.445h3.021V9.455c0-1.9020002 1.353-3.4450002 3.021-3.4450002h3.021V9.455h-.001z" fill="#fff"/>
  <g fill="#fff">
    <path d="M52.916 16c0 2.728-2.211 4.938-4.938 4.938s-4.939-2.21-4.939-4.938c0-.394.051-.773.138-1.14h-.897v6.838h11.396V14.86h-.897c.086.367.137.746.137 1.14z"/>
    <path d="M47.978 18.659c1.466 0 2.659-1.193 2.659-2.659 0-1.466-1.193-2.659-2.659-2.659-1.466 0-2.659 1.193-2.659 2.659 0 1.466 1.192 2.659 2.659 2.659zm2.658999-8.357h3.039v3.039h-3.039z"/>
    <path d="M48 0c-8.836 0-16 7.164-16 16 0 8.837 7.164 16 16 16 8.837 0 16-7.163 16-16 0-8.836-7.163-16-16-16zm7.955 21.698c0 1.254-1.025 2.279-2.279 2.279H42.279C41.026 23.978 40 22.952 40 21.698V10.302c0-1.253 1.026-2.279 2.279-2.279h11.396c1.254 0 2.279 1.026 2.279 2.279v11.396z"/>
  </g>
  <path d="M80 0c-8.836 0-16 7.164-16 16 0 8.837 7.164 16 16 16 8.837 0 16-7.163 16-16 0-8.836-7.163-16-16-16zm7.944 12.809c-.251 6.516-3.463 10.832-10.992 10.702h-.486c-.447 0-4.543-.443-5.344-1.823 2.479.19 4.247-.406 5.12-1.136-1.048-.289-2.923-.461-3.251-2.848.384.104.618.221 1.299.113-1.307-.824-2.758-1.519-2.679-3.643.311.317 1.164.518 1.46.457-.768-.233-2.149-3.244-.974-4.781 1.984 1.79 4.075 3.482 7.804 3.643.227-2.214 1.24-3.699 3.168-4.325 1.84-.479 3.255.26 3.901 1.138.737-.224 1.453-.466 2.193-.685-.004.833-.569 1.463-.935 1.709.747.165 1.423-.475 1.423-.475-.184.963-1.094 1.725-1.707 1.954z" fill="#fff"/>
</svg>
